solid OpenSCAD_Model
  facet normal -1 -0 -0
    outer loop
      vertex -18 -7 -5
      vertex -18 -7 5
      vertex -18 7 -5
    endloop
  endfacet
  facet normal -1 0 0
    outer loop
      vertex -18 7 -5
      vertex -18 -7 5
      vertex -18 7 5
    endloop
  endfacet
  facet normal 0 -1 0
    outer loop
      vertex -18 -7 5
      vertex -18 -7 -5
      vertex 18 -7 -5
    endloop
  endfacet
  facet normal 0 -1 0
    outer loop
      vertex 18 -7 5
      vertex -18 -7 5
      vertex 18 -7 -5
    endloop
  endfacet
  facet normal 0 0 -1
    outer loop
      vertex 15 -4 -5
      vertex 18 -7 -5
      vertex -15 -4 -5
    endloop
  endfacet
  facet normal 0 -0 -1
    outer loop
      vertex 15 4 -5
      vertex -18 7 -5
      vertex 18 7 -5
    endloop
  endfacet
  facet normal 0 -0 -1
    outer loop
      vertex -18 -7 -5
      vertex -18 7 -5
      vertex -15 4 -5
    endloop
  endfacet
  facet normal 0 0 -1
    outer loop
      vertex -18 -7 -5
      vertex -15 4 -5
      vertex -15 -4 -5
    endloop
  endfacet
  facet normal -0 0 -1
    outer loop
      vertex -18 -7 -5
      vertex -15 -4 -5
      vertex 18 -7 -5
    endloop
  endfacet
  facet normal 0 0 -1
    outer loop
      vertex 18 -7 -5
      vertex 15 -4 -5
      vertex 18 7 -5
    endloop
  endfacet
  facet normal 0 -0 -1
    outer loop
      vertex 15 -4 -5
      vertex 15 4 -5
      vertex 18 7 -5
    endloop
  endfacet
  facet normal -0 -0 -1
    outer loop
      vertex -15 4 -5
      vertex -18 7 -5
      vertex 15 4 -5
    endloop
  endfacet
  facet normal 0 1 0
    outer loop
      vertex -18 7 -5
      vertex -18 7 5
      vertex 18 7 -5
    endloop
  endfacet
  facet normal 0 1 0
    outer loop
      vertex 18 7 -5
      vertex -18 7 5
      vertex 18 7 5
    endloop
  endfacet
  facet normal 0 -0 1
    outer loop
      vertex -15 -4 5
      vertex -18 -7 5
      vertex 18 -7 5
    endloop
  endfacet
  facet normal 0 -0 1
    outer loop
      vertex -18 7 5
      vertex -18 -7 5
      vertex -15 -4 5
    endloop
  endfacet
  facet normal 0 0 1
    outer loop
      vertex -15 4 5
      vertex 15 4 5
      vertex -18 7 5
    endloop
  endfacet
  facet normal 0 0 1
    outer loop
      vertex -18 7 5
      vertex -15 -4 5
      vertex -15 4 5
    endloop
  endfacet
  facet normal 0 0 1
    outer loop
      vertex 18 7 5
      vertex 15 4 5
      vertex 18 -7 5
    endloop
  endfacet
  facet normal 0 0 1
    outer loop
      vertex 18 7 5
      vertex -18 7 5
      vertex 15 4 5
    endloop
  endfacet
  facet normal 0 -0 1
    outer loop
      vertex 15 4 5
      vertex 15 -4 5
      vertex 18 -7 5
    endloop
  endfacet
  facet normal 0 -0 1
    outer loop
      vertex 15 -4 5
      vertex -15 -4 5
      vertex 18 -7 5
    endloop
  endfacet
  facet normal 1 0 -0
    outer loop
      vertex 18 -7 5
      vertex 18 -7 -5
      vertex 18 7 -5
    endloop
  endfacet
  facet normal 1 0 0
    outer loop
      vertex 18 7 5
      vertex 18 -7 5
      vertex 18 7 -5
    endloop
  endfacet
  facet normal 1 0 0
    outer loop
      vertex -15 4 -5
      vertex -15 4 5
      vertex -15 -4 5
    endloop
  endfacet
  facet normal 1 0 0
    outer loop
      vertex -15 -4 -5
      vertex -15 4 -5
      vertex -15 -4 5
    endloop
  endfacet
  facet normal 0 -1 0
    outer loop
      vertex 15 4 -5
      vertex 15 4 5
      vertex -15 4 5
    endloop
  endfacet
  facet normal -0 -1 -0
    outer loop
      vertex -15 4 -5
      vertex 15 4 -5
      vertex -15 4 5
    endloop
  endfacet
  facet normal -1 0 0
    outer loop
      vertex 15 4 5
      vertex 15 4 -5
      vertex 15 -4 5
    endloop
  endfacet
  facet normal -1 0 0
    outer loop
      vertex 15 -4 5
      vertex 15 4 -5
      vertex 15 -4 -5
    endloop
  endfacet
  facet normal 0 1 0
    outer loop
      vertex 15 -4 5
      vertex 15 -4 -5
      vertex -15 -4 5
    endloop
  endfacet
  facet normal 0 1 -0
    outer loop
      vertex -15 -4 5
      vertex 15 -4 -5
      vertex -15 -4 -5
    endloop
  endfacet
endsolid OpenSCAD_Model
